<mxfile host="65bd71144e">
    <diagram id="w09ybPLpreU_bzVJ1TsK" name="Page-1">
        <mxGraphModel dx="831" dy="478" grid="1" gridSize="10" guides="1" tooltips="1" connect="1" arrows="1" fold="1" page="1" pageScale="1" pageWidth="827" pageHeight="1169" math="0" shadow="0">
            <root>
                <mxCell id="0"/>
                <mxCell id="1" parent="0"/>
                <mxCell id="9" value="user schema" style="swimlane;" parent="1" vertex="1">
                    <mxGeometry x="40" y="30" width="200" height="340" as="geometry"/>
                </mxCell>
                <mxCell id="10" value="nom:string required" style="text;html=1;strokeColor=none;fillColor=none;align=center;verticalAlign=middle;whiteSpace=wrap;rounded=0;" parent="9" vertex="1">
                    <mxGeometry y="30" width="200" height="30" as="geometry"/>
                </mxCell>
                <mxCell id="14" value="categorie: string&amp;nbsp; requried deflt:utlisateur" style="text;html=1;strokeColor=none;fillColor=none;align=center;verticalAlign=middle;whiteSpace=wrap;rounded=0;" parent="9" vertex="1">
                    <mxGeometry y="170" width="200" height="30" as="geometry"/>
                </mxCell>
                <mxCell id="13" value="password:string required" style="text;html=1;strokeColor=none;fillColor=none;align=center;verticalAlign=middle;whiteSpace=wrap;rounded=0;" parent="9" vertex="1">
                    <mxGeometry y="140" width="200" height="30" as="geometry"/>
                </mxCell>
                <mxCell id="12" value="email:string required" style="text;html=1;strokeColor=none;fillColor=none;align=center;verticalAlign=middle;whiteSpace=wrap;rounded=0;" parent="9" vertex="1">
                    <mxGeometry y="110" width="200" height="30" as="geometry"/>
                </mxCell>
                <mxCell id="11" value="prenom:string required" style="text;html=1;strokeColor=none;fillColor=none;align=center;verticalAlign=middle;whiteSpace=wrap;rounded=0;" parent="9" vertex="1">
                    <mxGeometry y="70" width="200" height="30" as="geometry"/>
                </mxCell>
                <mxCell id="16" value="admin:boolean required deflt:false" style="text;html=1;strokeColor=none;fillColor=none;align=center;verticalAlign=middle;whiteSpace=wrap;rounded=0;" parent="9" vertex="1">
                    <mxGeometry y="200" width="200" height="30" as="geometry"/>
                </mxCell>
                <mxCell id="15" value="photo:string deflt:imageprofile" style="text;html=1;strokeColor=none;fillColor=none;align=center;verticalAlign=middle;whiteSpace=wrap;rounded=0;" parent="9" vertex="1">
                    <mxGeometry y="240" width="200" height="30" as="geometry"/>
                </mxCell>
                <mxCell id="17" value="telephone:string&amp;nbsp;" style="text;html=1;strokeColor=none;fillColor=none;align=center;verticalAlign=middle;whiteSpace=wrap;rounded=0;" parent="9" vertex="1">
                    <mxGeometry y="270" width="200" height="30" as="geometry"/>
                </mxCell>
                <mxCell id="18" value="adress:string" style="text;html=1;strokeColor=none;fillColor=none;align=center;verticalAlign=middle;whiteSpace=wrap;rounded=0;" parent="9" vertex="1">
                    <mxGeometry y="300" width="200" height="30" as="geometry"/>
                </mxCell>
                <mxCell id="19" value="restaurant" style="swimlane;" vertex="1" parent="1">
                    <mxGeometry x="340" y="15" width="202" height="420" as="geometry"/>
                </mxCell>
                <mxCell id="20" value="titre:string required" style="text;html=1;strokeColor=none;fillColor=none;align=center;verticalAlign=middle;whiteSpace=wrap;rounded=0;" vertex="1" parent="19">
                    <mxGeometry y="30" width="200" height="30" as="geometry"/>
                </mxCell>
                <mxCell id="21" value="logo:string&amp;nbsp; &amp;nbsp;deflt:logo_img" style="text;html=1;strokeColor=none;fillColor=none;align=center;verticalAlign=middle;whiteSpace=wrap;rounded=0;" vertex="1" parent="19">
                    <mxGeometry x="2" y="140" width="200" height="30" as="geometry"/>
                </mxCell>
                <mxCell id="23" value="adress:{string} required" style="text;html=1;strokeColor=none;fillColor=none;align=center;verticalAlign=middle;whiteSpace=wrap;rounded=0;" vertex="1" parent="19">
                    <mxGeometry y="110" width="200" height="30" as="geometry"/>
                </mxCell>
                <mxCell id="24" value="categorie:string required" style="text;html=1;strokeColor=none;fillColor=none;align=center;verticalAlign=middle;whiteSpace=wrap;rounded=0;" vertex="1" parent="19">
                    <mxGeometry y="70" width="200" height="30" as="geometry"/>
                </mxCell>
                <mxCell id="25" value="alcool:boolean required deflt:false" style="text;html=1;strokeColor=none;fillColor=none;align=center;verticalAlign=middle;whiteSpace=wrap;rounded=0;" vertex="1" parent="19">
                    <mxGeometry x="2" y="180" width="200" height="30" as="geometry"/>
                </mxCell>
                <mxCell id="26" value="photo:[string]&amp;nbsp;" style="text;html=1;strokeColor=none;fillColor=none;align=center;verticalAlign=middle;whiteSpace=wrap;rounded=0;" vertex="1" parent="19">
                    <mxGeometry x="1" y="330" width="200" height="30" as="geometry"/>
                </mxCell>
                <mxCell id="27" value="telephone:string&amp;nbsp; required" style="text;html=1;strokeColor=none;fillColor=none;align=center;verticalAlign=middle;whiteSpace=wrap;rounded=0;" vertex="1" parent="19">
                    <mxGeometry y="210" width="200" height="30" as="geometry"/>
                </mxCell>
                <mxCell id="28" value="specialite:string required" style="text;html=1;strokeColor=none;fillColor=none;align=center;verticalAlign=middle;whiteSpace=wrap;rounded=0;" vertex="1" parent="19">
                    <mxGeometry x="1" y="270" width="200" height="30" as="geometry"/>
                </mxCell>
                <mxCell id="30" value="notes:[number]&amp;nbsp;" style="text;html=1;strokeColor=none;fillColor=none;align=center;verticalAlign=middle;whiteSpace=wrap;rounded=0;" vertex="1" parent="19">
                    <mxGeometry x="2" y="300" width="200" height="30" as="geometry"/>
                </mxCell>
                <mxCell id="29" value="promos:[string]" style="text;html=1;strokeColor=none;fillColor=none;align=center;verticalAlign=middle;whiteSpace=wrap;rounded=0;" vertex="1" parent="19">
                    <mxGeometry x="2" y="360" width="200" height="30" as="geometry"/>
                </mxCell>
                <mxCell id="31" value="description string required" style="text;html=1;strokeColor=none;fillColor=none;align=center;verticalAlign=middle;whiteSpace=wrap;rounded=0;" vertex="1" parent="19">
                    <mxGeometry y="240" width="200" height="30" as="geometry"/>
                </mxCell>
                <mxCell id="81" value="administrateur:string deft:admin required" style="text;html=1;strokeColor=none;fillColor=none;align=center;verticalAlign=middle;whiteSpace=wrap;rounded=0;" vertex="1" parent="19">
                    <mxGeometry y="390" width="200" height="30" as="geometry"/>
                </mxCell>
                <mxCell id="32" value="titre:string required" style="text;html=1;strokeColor=none;fillColor=none;align=center;verticalAlign=middle;whiteSpace=wrap;rounded=0;" vertex="1" parent="1">
                    <mxGeometry x="570" y="40" width="200" height="30" as="geometry"/>
                </mxCell>
                <mxCell id="33" value="logo:string&amp;nbsp; &amp;nbsp;deflt:logo_img" style="text;html=1;strokeColor=none;fillColor=none;align=center;verticalAlign=middle;whiteSpace=wrap;rounded=0;" vertex="1" parent="1">
                    <mxGeometry x="572" y="150" width="200" height="30" as="geometry"/>
                </mxCell>
                <mxCell id="34" value="adress:{string} required" style="text;html=1;strokeColor=none;fillColor=none;align=center;verticalAlign=middle;whiteSpace=wrap;rounded=0;" vertex="1" parent="1">
                    <mxGeometry x="570" y="120" width="200" height="30" as="geometry"/>
                </mxCell>
                <mxCell id="35" value="categorie:string required" style="text;html=1;strokeColor=none;fillColor=none;align=center;verticalAlign=middle;whiteSpace=wrap;rounded=0;" vertex="1" parent="1">
                    <mxGeometry x="570" y="80" width="200" height="30" as="geometry"/>
                </mxCell>
                <mxCell id="43" value="evenement" style="swimlane;" vertex="1" parent="1">
                    <mxGeometry x="580" y="10" width="201" height="450" as="geometry"/>
                </mxCell>
                <mxCell id="38" value="telephone:string&amp;nbsp; required" style="text;html=1;strokeColor=none;fillColor=none;align=center;verticalAlign=middle;whiteSpace=wrap;rounded=0;" vertex="1" parent="43">
                    <mxGeometry x="1" y="175" width="200" height="30" as="geometry"/>
                </mxCell>
                <mxCell id="42" value="description string required" style="text;html=1;strokeColor=none;fillColor=none;align=center;verticalAlign=middle;whiteSpace=wrap;rounded=0;" vertex="1" parent="43">
                    <mxGeometry y="210" width="200" height="30" as="geometry"/>
                </mxCell>
                <mxCell id="39" value="date_debut:string required" style="text;html=1;strokeColor=none;fillColor=none;align=center;verticalAlign=middle;whiteSpace=wrap;rounded=0;" vertex="1" parent="43">
                    <mxGeometry x="1" y="240" width="200" height="30" as="geometry"/>
                </mxCell>
                <mxCell id="40" value="notes:[number]&amp;nbsp;" style="text;html=1;strokeColor=none;fillColor=none;align=center;verticalAlign=middle;whiteSpace=wrap;rounded=0;" vertex="1" parent="43">
                    <mxGeometry x="1" y="330" width="200" height="30" as="geometry"/>
                </mxCell>
                <mxCell id="37" value="date_fin:date required" style="text;html=1;strokeColor=none;fillColor=none;align=center;verticalAlign=middle;whiteSpace=wrap;rounded=0;" vertex="1" parent="43">
                    <mxGeometry x="1" y="270" width="200" height="30" as="geometry"/>
                </mxCell>
                <mxCell id="41" value="prix: string required" style="text;html=1;strokeColor=none;fillColor=none;align=center;verticalAlign=middle;whiteSpace=wrap;rounded=0;" vertex="1" parent="43">
                    <mxGeometry y="300" width="200" height="30" as="geometry"/>
                </mxCell>
                <mxCell id="44" value="lien_event:string" style="text;html=1;strokeColor=none;fillColor=none;align=center;verticalAlign=middle;whiteSpace=wrap;rounded=0;" vertex="1" parent="43">
                    <mxGeometry x="1" y="360" width="200" height="30" as="geometry"/>
                </mxCell>
                <mxCell id="45" value="organiser par:string&amp;nbsp;" style="text;html=1;strokeColor=none;fillColor=none;align=center;verticalAlign=middle;whiteSpace=wrap;rounded=0;" vertex="1" parent="43">
                    <mxGeometry y="390" width="200" height="30" as="geometry"/>
                </mxCell>
                <mxCell id="80" value="administrateur:string deft:admin required" style="text;html=1;strokeColor=none;fillColor=none;align=center;verticalAlign=middle;whiteSpace=wrap;rounded=0;" vertex="1" parent="43">
                    <mxGeometry y="420" width="200" height="30" as="geometry"/>
                </mxCell>
                <mxCell id="46" value="hotel" style="swimlane;" vertex="1" parent="1">
                    <mxGeometry x="70" y="410" width="202" height="610" as="geometry"/>
                </mxCell>
                <mxCell id="47" value="titre:string required" style="text;html=1;strokeColor=none;fillColor=none;align=center;verticalAlign=middle;whiteSpace=wrap;rounded=0;" vertex="1" parent="46">
                    <mxGeometry y="30" width="200" height="30" as="geometry"/>
                </mxCell>
                <mxCell id="48" value="logo:string&amp;nbsp; &amp;nbsp;deflt:logo_img" style="text;html=1;strokeColor=none;fillColor=none;align=center;verticalAlign=middle;whiteSpace=wrap;rounded=0;" vertex="1" parent="46">
                    <mxGeometry x="2" y="140" width="200" height="30" as="geometry"/>
                </mxCell>
                <mxCell id="49" value="adress:{string} required" style="text;html=1;strokeColor=none;fillColor=none;align=center;verticalAlign=middle;whiteSpace=wrap;rounded=0;" vertex="1" parent="46">
                    <mxGeometry y="110" width="200" height="30" as="geometry"/>
                </mxCell>
                <mxCell id="50" value="categorie:string required" style="text;html=1;strokeColor=none;fillColor=none;align=center;verticalAlign=middle;whiteSpace=wrap;rounded=0;" vertex="1" parent="46">
                    <mxGeometry y="70" width="200" height="30" as="geometry"/>
                </mxCell>
                <mxCell id="51" value="alcool:boolean required deflt:false" style="text;html=1;strokeColor=none;fillColor=none;align=center;verticalAlign=middle;whiteSpace=wrap;rounded=0;" vertex="1" parent="46">
                    <mxGeometry x="2" y="180" width="200" height="30" as="geometry"/>
                </mxCell>
                <mxCell id="52" value="photo:[string]&amp;nbsp;" style="text;html=1;strokeColor=none;fillColor=none;align=center;verticalAlign=middle;whiteSpace=wrap;rounded=0;" vertex="1" parent="46">
                    <mxGeometry x="1" y="330" width="200" height="30" as="geometry"/>
                </mxCell>
                <mxCell id="53" value="telephone:string&amp;nbsp; required" style="text;html=1;strokeColor=none;fillColor=none;align=center;verticalAlign=middle;whiteSpace=wrap;rounded=0;" vertex="1" parent="46">
                    <mxGeometry y="210" width="200" height="30" as="geometry"/>
                </mxCell>
                <mxCell id="54" value="nb_etoile:number&amp;nbsp;" style="text;html=1;strokeColor=none;fillColor=none;align=center;verticalAlign=middle;whiteSpace=wrap;rounded=0;" vertex="1" parent="46">
                    <mxGeometry x="1" y="270" width="200" height="30" as="geometry"/>
                </mxCell>
                <mxCell id="55" value="notes:[number]&amp;nbsp;" style="text;html=1;strokeColor=none;fillColor=none;align=center;verticalAlign=middle;whiteSpace=wrap;rounded=0;" vertex="1" parent="46">
                    <mxGeometry x="2" y="300" width="200" height="30" as="geometry"/>
                </mxCell>
                <mxCell id="56" value="promos:[string]" style="text;html=1;strokeColor=none;fillColor=none;align=center;verticalAlign=middle;whiteSpace=wrap;rounded=0;" vertex="1" parent="46">
                    <mxGeometry x="2" y="360" width="200" height="30" as="geometry"/>
                </mxCell>
                <mxCell id="57" value="description string required" style="text;html=1;strokeColor=none;fillColor=none;align=center;verticalAlign=middle;whiteSpace=wrap;rounded=0;" vertex="1" parent="46">
                    <mxGeometry y="240" width="200" height="30" as="geometry"/>
                </mxCell>
                <mxCell id="72" value="lien_fb:string" style="text;html=1;strokeColor=none;fillColor=none;align=center;verticalAlign=middle;whiteSpace=wrap;rounded=0;" vertex="1" parent="46">
                    <mxGeometry y="430" width="200" height="30" as="geometry"/>
                </mxCell>
                <mxCell id="71" value="comodites:[string]" style="text;html=1;strokeColor=none;fillColor=none;align=center;verticalAlign=middle;whiteSpace=wrap;rounded=0;" vertex="1" parent="46">
                    <mxGeometry x="2" y="390" width="200" height="30" as="geometry"/>
                </mxCell>
                <mxCell id="70" value="site_web:string" style="text;html=1;strokeColor=none;fillColor=none;align=center;verticalAlign=middle;whiteSpace=wrap;rounded=0;" vertex="1" parent="46">
                    <mxGeometry x="2" y="470" width="200" height="30" as="geometry"/>
                </mxCell>
                <mxCell id="73" value="events:[string]" style="text;html=1;strokeColor=none;fillColor=none;align=center;verticalAlign=middle;whiteSpace=wrap;rounded=0;" vertex="1" parent="46">
                    <mxGeometry y="500" width="200" height="30" as="geometry"/>
                </mxCell>
                <mxCell id="82" value="administrateur:string deft:admin required" style="text;html=1;strokeColor=none;fillColor=none;align=center;verticalAlign=middle;whiteSpace=wrap;rounded=0;" vertex="1" parent="46">
                    <mxGeometry x="1" y="550" width="200" height="30" as="geometry"/>
                </mxCell>
                <mxCell id="58" value="etablissement" style="swimlane;" vertex="1" parent="1">
                    <mxGeometry x="400" y="470" width="202" height="470" as="geometry"/>
                </mxCell>
                <mxCell id="59" value="titre:string required" style="text;html=1;strokeColor=none;fillColor=none;align=center;verticalAlign=middle;whiteSpace=wrap;rounded=0;" vertex="1" parent="58">
                    <mxGeometry y="30" width="200" height="30" as="geometry"/>
                </mxCell>
                <mxCell id="60" value="logo:string&amp;nbsp; &amp;nbsp;deflt:logo_img" style="text;html=1;strokeColor=none;fillColor=none;align=center;verticalAlign=middle;whiteSpace=wrap;rounded=0;" vertex="1" parent="58">
                    <mxGeometry x="2" y="140" width="200" height="30" as="geometry"/>
                </mxCell>
                <mxCell id="61" value="adress:{string} required" style="text;html=1;strokeColor=none;fillColor=none;align=center;verticalAlign=middle;whiteSpace=wrap;rounded=0;" vertex="1" parent="58">
                    <mxGeometry y="110" width="200" height="30" as="geometry"/>
                </mxCell>
                <mxCell id="62" value="categorie:string required" style="text;html=1;strokeColor=none;fillColor=none;align=center;verticalAlign=middle;whiteSpace=wrap;rounded=0;" vertex="1" parent="58">
                    <mxGeometry y="70" width="200" height="30" as="geometry"/>
                </mxCell>
                <mxCell id="64" value="photo:[string]&amp;nbsp;" style="text;html=1;strokeColor=none;fillColor=none;align=center;verticalAlign=middle;whiteSpace=wrap;rounded=0;" vertex="1" parent="58">
                    <mxGeometry x="1" y="350" width="200" height="30" as="geometry"/>
                </mxCell>
                <mxCell id="65" value="telephone:string&amp;nbsp; required" style="text;html=1;strokeColor=none;fillColor=none;align=center;verticalAlign=middle;whiteSpace=wrap;rounded=0;" vertex="1" parent="58">
                    <mxGeometry y="210" width="200" height="30" as="geometry"/>
                </mxCell>
                <mxCell id="67" value="notes:[number]&amp;nbsp;" style="text;html=1;strokeColor=none;fillColor=none;align=center;verticalAlign=middle;whiteSpace=wrap;rounded=0;" vertex="1" parent="58">
                    <mxGeometry x="2" y="320" width="200" height="30" as="geometry"/>
                </mxCell>
                <mxCell id="68" value="events:[string]" style="text;html=1;strokeColor=none;fillColor=none;align=center;verticalAlign=middle;whiteSpace=wrap;rounded=0;" vertex="1" parent="58">
                    <mxGeometry x="2" y="380" width="200" height="30" as="geometry"/>
                </mxCell>
                <mxCell id="69" value="description string required" style="text;html=1;strokeColor=none;fillColor=none;align=center;verticalAlign=middle;whiteSpace=wrap;rounded=0;" vertex="1" parent="58">
                    <mxGeometry y="240" width="200" height="30" as="geometry"/>
                </mxCell>
                <mxCell id="75" value="heure_ouverture:date" style="text;html=1;strokeColor=none;fillColor=none;align=center;verticalAlign=middle;whiteSpace=wrap;rounded=0;" vertex="1" parent="58">
                    <mxGeometry x="2" y="280" width="200" height="30" as="geometry"/>
                </mxCell>
                <mxCell id="78" value="email:string&amp;nbsp; required" style="text;html=1;strokeColor=none;fillColor=none;align=center;verticalAlign=middle;whiteSpace=wrap;rounded=0;" vertex="1" parent="58">
                    <mxGeometry x="2" y="180" width="200" height="30" as="geometry"/>
                </mxCell>
                <mxCell id="79" value="administrateur:string deft:admin required" style="text;html=1;strokeColor=none;fillColor=none;align=center;verticalAlign=middle;whiteSpace=wrap;rounded=0;" vertex="1" parent="58">
                    <mxGeometry x="2" y="420" width="200" height="30" as="geometry"/>
                </mxCell>
            </root>
        </mxGraphModel>
    </diagram>
</mxfile>